<svg xmlns="http://www.w3.org/2000/svg" width="24" height="24" viewBox="0 0 24 24"><path fill="#000000" d="M9.216 20.51q-2.697-.873-4.447-3.193t-1.75-5.33q0-.785.13-1.554t.415-1.504l-2.17 1.252l-.48-.86l3.89-2.25l2.25 3.885l-.865.519l-1.504-2.6q-.333.733-.49 1.525t-.157 1.606q0 2.694 1.604 4.787t4.093 2.832zm5.996-12.53v-1h2.975q-1.131-1.424-2.756-2.192T12 4.019q-1.586 0-2.966.57q-1.378.569-2.442 1.575l-.519-.904q1.193-1.048 2.696-1.644q1.504-.597 3.212-.597q1.956 0 3.698.786t3.033 2.262V3.481h1v4.5zm.138 14.905l-3.89-2.27l2.25-3.865l.86.5l-1.56 2.662q2.969-.387 4.96-2.637T19.962 12q0-.525-.07-1.032q-.07-.506-.217-.987h1.044q.122.48.182.978q.06.497.06 1.022q0 3.26-2.05 5.73q-2.051 2.47-5.219 3.068l2.158 1.246z"/></svg>